<?xml version="1.0" encoding="UTF-8"?>
<svg version="1.1" xmlns="http://www.w3.org/2000/svg" width="500" height="500">
<path d="M0 0 C1.18227173 0.01075562 1.18227173 0.01075562 2.38842773 0.02172852 C20.45771107 0.27021107 20.45771107 0.27021107 22.375 2.1875 C22.8108918 5.6506519 22.93789339 9.14070976 23.125 12.625 C23.19332031 13.60533203 23.26164062 14.58566406 23.33203125 15.59570312 C23.38230469 16.53220703 23.43257813 17.46871094 23.484375 18.43359375 C23.53561523 19.29654053 23.58685547 20.1594873 23.63964844 21.04858398 C23.55231445 21.75442627 23.46498047 22.46026855 23.375 23.1875 C22.385 23.8475 21.395 24.5075 20.375 25.1875 C19.9728125 23.97513672 19.9728125 23.97513672 19.5625 22.73828125 C16.56468205 14.36094569 16.56468205 14.36094569 9.9453125 8.8984375 C2.83020422 6.93042883 -5.69876103 6.53939633 -12.3125 10.1875 C-16.87667075 13.73741058 -19.13308542 17.96443466 -20 23.64453125 C-20.2984761 29.71665441 -18.97745297 34.11264007 -15.625 39.1875 C-13.4443228 41.50386378 -11.03419403 43.39684001 -8.5 45.3125 C-7.80567871 45.85745117 -7.11135742 46.40240234 -6.39599609 46.96386719 C-4.15067073 48.72073054 -1.88938594 50.45529252 0.375 52.1875 C34.02848467 78.14915991 34.02848467 78.14915991 38.375 95.1875 C38.601875 96.0125 38.82875 96.8375 39.0625 97.6875 C40.61825878 110.13357026 37.23528329 120.09622414 29.91796875 130.19921875 C23.62805853 137.28532014 12.82756758 142.67861612 3.40136719 143.32226562 C-11.594311 144.01247053 -23.88291888 142.39891697 -35.625 132.1875 C-42.58188313 125.24561015 -45.74354184 115.90196776 -46.125 106.1875 C-45.71253679 95.99566708 -41.98214324 85.4801069 -34.625 78.1875 C-33.305 78.1875 -31.985 78.1875 -30.625 78.1875 C-31.53226048 82.92793603 -34.0045049 86.89608853 -36.25 91.1171875 C-39.91087688 99.29175916 -39.46406049 108.41212435 -36.65234375 116.76953125 C-33.18985189 124.91889421 -27.52268408 129.42111271 -19.625 133.1875 C-12.0612058 135.88415706 -0.47552268 135.3427484 7 132.5625 C14.57765271 128.87677096 19.45781472 124.13682989 22.375 116.1875 C25.34738997 107.25417579 24.75425743 99.60118436 20.8125 91.0625 C15.73663114 81.71909736 8.26741174 76.23047258 -0.12402344 70.04223633 C-5.44084822 66.11478504 -10.62965797 62.05535149 -15.75 57.875 C-16.44794678 57.31280762 -17.14589355 56.75061523 -17.86499023 56.17138672 C-26.79254782 48.8284301 -31.74247355 42.42441356 -33 30.6875 C-32.00059228 21.35969462 -28.80619129 12.52372998 -21.4453125 6.36328125 C-14.45187938 1.50084375 -8.41950293 -0.14361055 0 0 Z " fill="#60DFE4" transform="translate(208.625,145.8125)"/>
<path d="M0 0 C0.19635974 3.45789054 0.38058252 6.91632197 0.5625 10.375 C0.64661133 11.85226563 0.64661133 11.85226563 0.73242188 13.359375 C0.78076172 14.30039063 0.82910156 15.24140625 0.87890625 16.2109375 C0.94960327 17.51490479 0.94960327 17.51490479 1.02172852 18.84521484 C1 21 1 21 0 23 C-0.99 23 -1.98 23 -3 23 C-3.18175781 22.30132812 -3.36351562 21.60265625 -3.55078125 20.8828125 C-3.80214844 19.97273438 -4.05351562 19.06265625 -4.3125 18.125 C-4.55613281 17.22007812 -4.79976563 16.31515625 -5.05078125 15.3828125 C-5.86669852 12.67886681 -5.86669852 12.67886681 -9 11 C-11.68004202 10.75952354 -14.26554203 10.62726502 -16.94921875 10.5859375 C-17.72183548 10.56657135 -18.49445221 10.5472052 -19.29048157 10.5272522 C-21.7560424 10.46751521 -24.22165007 10.42109514 -26.6875 10.375 C-28.3600463 10.33681475 -30.03257305 10.29776269 -31.70507812 10.2578125 C-35.80322647 10.16181867 -39.90146688 10.07776623 -44 10 C-44.11685348 23.99499376 -44.20466524 37.98991176 -44.25906086 51.98529339 C-44.28516666 58.48377578 -44.32058392 64.9819307 -44.37719727 71.48022461 C-44.43148006 77.75016821 -44.46141313 84.01979662 -44.47438622 90.28995705 C-44.48363265 92.68341854 -44.50168863 95.07686256 -44.52865028 97.47019005 C-44.56488937 100.81994428 -44.56994727 104.16839218 -44.56762695 107.51831055 C-44.59459152 109.00616562 -44.59459152 109.00616562 -44.62210083 110.52407837 C-44.5869945 115.2006274 -44.55008077 117.29194142 -41.60441589 121.08357239 C-39.26985794 122.80142833 -37.42739226 123.93016181 -34.6875 124.8125 C-33.470625 125.204375 -32.25375 125.59625 -31 126 C-31.33 126.66 -31.66 127.32 -32 128 C-44.87 128 -57.74 128 -71 128 C-71 126.68 -71 125.36 -71 124 C-69.9275 123.9175 -68.855 123.835 -67.75 123.75 C-63.68592048 122.9371841 -62.46927441 122.22905115 -60 119 C-58.8014553 115.40436591 -58.87584242 112.14575855 -58.90234375 108.40527344 C-58.90380402 107.63223373 -58.90526428 106.85919403 -58.9067688 106.06272888 C-58.91057761 104.37999587 -58.91669712 102.69726689 -58.92483521 101.01454926 C-58.9376497 98.32798973 -58.94413046 95.64148001 -58.94897461 92.95489502 C-58.96232517 86.26325954 -58.98618311 79.57166961 -59.01037598 72.88006592 C-59.03359586 66.35234218 -59.05209708 59.82463248 -59.0625 53.296875 C-59.06402069 52.39671158 -59.06554138 51.49654816 -59.06710815 50.56910706 C-59.08198462 37.02070886 -58.83863045 23.5266599 -58 10 C-59.23363281 10.06147217 -60.46726563 10.12294434 -61.73828125 10.1862793 C-75.27342562 10.80650451 -75.27342562 10.80650451 -79.5625 7.0625 C-82 4 -82 4 -82 3 C-80.78089935 2.98786972 -80.78089935 2.98786972 -79.53717041 2.97549438 C-71.8295153 2.89713585 -64.12203838 2.80972559 -56.41460037 2.71247292 C-52.45335553 2.66280035 -48.49213368 2.61647114 -44.53076172 2.578125 C-40.69861914 2.54090107 -36.86668386 2.49444792 -33.03472137 2.44193649 C-31.58214756 2.4235874 -30.12952966 2.4084099 -28.67688751 2.39665604 C-20.77254868 2.33048748 -13.14252432 1.93479712 -5.36151123 0.42294312 C-3 0 -3 0 0 0 Z " fill="#61DEE4" transform="translate(308,205)"/>
<path d="M0 0 C-0.90726048 4.74043603 -3.3795049 8.70858853 -5.625 12.9296875 C-9.28587688 21.10425916 -8.83906049 30.22462435 -6.02734375 38.58203125 C-2.56485189 46.73139421 3.10231592 51.23361271 11 55 C18.53552277 57.68657768 30.11927619 57.17346636 37.5625 54.375 C42.13830489 52.1930553 46.12490458 49.24728666 50 46 C48.07398727 50.31279406 45.78294318 52.22069481 42 55 C41.01 55 40.02 55 39 55 C38.67 56.65 38.34 58.3 38 60 C40.64 60.33 43.28 60.66 46 61 C41.77102478 65.22897522 34.87455965 65.27104849 29.15014648 65.38061523 C14.98150592 65.34746716 3.54499966 62.52658372 -6.8125 52.19140625 C-13.1683396 44.54850913 -15.77652693 34.83289113 -15.37890625 25.0078125 C-14.31502618 16.56257896 -10.12218643 0 0 0 Z " fill="#61DDE3" transform="translate(178,224)"/>
<path d="M0 0 C1.18227173 0.01075562 1.18227173 0.01075562 2.38842773 0.02172852 C20.45771107 0.27021107 20.45771107 0.27021107 22.375 2.1875 C22.8108918 5.6506519 22.93789339 9.14070976 23.125 12.625 C23.22748047 14.09549805 23.22748047 14.09549805 23.33203125 15.59570312 C23.38230469 16.53220703 23.43257812 17.46871094 23.484375 18.43359375 C23.53561523 19.29654053 23.58685547 20.1594873 23.63964844 21.04858398 C23.50864746 22.10734741 23.50864746 22.10734741 23.375 23.1875 C22.385 23.8475 21.395 24.5075 20.375 25.1875 C20.106875 24.37925781 19.83875 23.57101563 19.5625 22.73828125 C16.56468205 14.36094569 16.56468205 14.36094569 9.9453125 8.8984375 C3.46054759 7.10477912 -3.93485756 6.75183807 -10.265625 9.21484375 C-13.47533129 11.17038703 -16.01048617 13.50211079 -18.625 16.1875 C-18.75 11.4375 -18.75 11.4375 -17.625 9.1875 C-20.04767086 9.13582473 -20.04767086 9.13582473 -22.625 10.1875 C-24.49483745 13.66057328 -24.49483745 13.66057328 -25.625 17.1875 C-26.285 17.1875 -26.945 17.1875 -27.625 17.1875 C-29.91939762 28.49318621 -29.91939762 28.49318621 -26.625 39.1875 C-27.29166667 41.1875 -27.95833333 43.1875 -28.625 45.1875 C-32.72518562 37.52193558 -33.74095355 30.81494142 -31.5 22.3125 C-28.44684621 13.01168893 -23.40000005 6.64812502 -14.625 2.1875 C-9.63975146 0.09966087 -5.30815366 -0.0905406 0 0 Z " fill="#68D9DD" transform="translate(208.625,145.8125)"/>
<path d="M0 0 C0.19635974 3.45789054 0.38058252 6.91632197 0.5625 10.375 C0.64661133 11.85226563 0.64661133 11.85226563 0.73242188 13.359375 C0.78076172 14.30039063 0.82910156 15.24140625 0.87890625 16.2109375 C0.94960327 17.51490479 0.94960327 17.51490479 1.02172852 18.84521484 C1 21 1 21 0 23 C-0.99 23 -1.98 23 -3 23 C-3.18175781 22.30132812 -3.36351562 21.60265625 -3.55078125 20.8828125 C-3.80214844 19.97273438 -4.05351562 19.06265625 -4.3125 18.125 C-4.55613281 17.22007812 -4.79976563 16.31515625 -5.05078125 15.3828125 C-5.86669852 12.67886681 -5.86669852 12.67886681 -9 11 C-11.75218977 10.75926865 -14.41217466 10.62717312 -17.16796875 10.5859375 C-17.96278152 10.56657135 -18.7575943 10.5472052 -19.57649231 10.5272522 C-22.11338595 10.46750558 -24.65032509 10.42109117 -27.1875 10.375 C-28.90822284 10.33681565 -30.62892665 10.29776365 -32.34960938 10.2578125 C-36.56625165 10.16180821 -40.7829834 10.07775924 -45 10 C-45 9.34 -45 8.68 -45 8 C-44.08186523 7.98018066 -43.16373047 7.96036133 -42.21777344 7.93994141 C-38.80328175 7.86173045 -35.38922298 7.77503416 -31.97509766 7.68261719 C-30.49894464 7.64439334 -29.02270057 7.60952897 -27.54638672 7.578125 C-25.42121906 7.53233014 -23.29667458 7.47436163 -21.171875 7.4140625 C-19.2552002 7.36693115 -19.2552002 7.36693115 -17.29980469 7.31884766 C-14.27462676 7.02653615 -12.53950891 6.59418511 -10 5 C-11.07849569 3.69319224 -11.07849569 3.69319224 -13.66383362 3.91770935 C-14.85186081 3.93769485 -16.039888 3.95768036 -17.26391602 3.97827148 C-17.91755127 3.98787903 -18.57118652 3.99748657 -19.24462891 4.00738525 C-21.41449402 4.04048082 -23.58416434 4.08077242 -25.75390625 4.12109375 C-27.25462651 4.14538458 -28.75535406 4.16922864 -30.25608826 4.19264221 C-34.21324955 4.25558648 -38.17028233 4.32462357 -42.12731934 4.39489746 C-46.16229379 4.46548777 -50.19735963 4.53036032 -54.23242188 4.59570312 C-62.15504907 4.72484868 -70.07754969 4.86042611 -78 5 C-75.04554181 6.78835363 -72.11277032 8.50125873 -69 10 C-72.16226263 10.46277014 -74.24892239 10.49921925 -76.95703125 8.69921875 C-78.72210584 7.19297384 -80.41391213 5.69401693 -82 4 C-82 3.67 -82 3.34 -82 3 C-80.78089935 2.98786972 -80.78089935 2.98786972 -79.53717041 2.97549438 C-71.8295153 2.89713585 -64.12203838 2.80972559 -56.41460037 2.71247292 C-52.45335553 2.66280035 -48.49213368 2.61647114 -44.53076172 2.578125 C-40.69861914 2.54090107 -36.86668386 2.49444792 -33.03472137 2.44193649 C-31.58214756 2.4235874 -30.12952966 2.4084099 -28.67688751 2.39665604 C-20.77254868 2.33048748 -13.14252432 1.93479712 -5.36151123 0.42294312 C-3 0 -3 0 0 0 Z " fill="#6BD4D8" transform="translate(308,205)"/>
<path d="M0 0 C2.5 1.25 2.5 1.25 4.5 4.25 C3.70335937 4.70439453 3.70335937 4.70439453 2.890625 5.16796875 C-2.43423795 8.32596229 -6.46469514 11.14408541 -8.5 17.25 C-8.67190054 22.40701618 -8.34719634 27.16682196 -7.5 32.25 C-8.49 32.25 -9.48 32.25 -10.5 32.25 C-14.18561736 25.70802918 -16.67590091 20.92598324 -15.09375 13.2890625 C-13.33558444 7.25115184 -9.47179367 3.89175969 -4.5 0.25 C-2.5 -0.75 -2.5 -0.75 0 0 Z " fill="#6ED5D8" transform="translate(200.5,211.75)"/>
<path d="M0 0 C0 3 0 3 -1.42578125 4.60546875 C-2.04839844 5.12753906 -2.67101562 5.64960938 -3.3125 6.1875 C-3.92738281 6.71730469 -4.54226562 7.24710937 -5.17578125 7.79296875 C-7 9 -7 9 -10 9 C-10.33 10.65 -10.66 12.3 -11 14 C-8.36 14.33 -5.72 14.66 -3 15 C-7.22846566 19.22846566 -14.12798076 19.27364251 -19.85229492 19.37890625 C-20.6435376 19.37761719 -21.43478027 19.37632812 -22.25 19.375 C-23.48810425 19.37693359 -23.48810425 19.37693359 -24.7512207 19.37890625 C-31.76817442 19.25843177 -37.55808491 17.88021752 -44 15 C-41.47446727 14.06461751 -40.36319035 13.84948868 -37.83203125 14.8984375 C-33.82226271 16.45809919 -29.95562819 16.46330296 -25.6875 16.625 C-24.85154297 16.66367187 -24.01558594 16.70234375 -23.15429688 16.7421875 C-21.10320741 16.83595159 -19.05163485 16.91904245 -17 17 C-17 15.68 -17 14.36 -17 13 C-18.61068359 13.03480469 -18.61068359 13.03480469 -20.25390625 13.0703125 C-21.69009715 13.08908624 -23.12629565 13.1072847 -24.5625 13.125 C-25.26697266 13.14175781 -25.97144531 13.15851563 -26.69726562 13.17578125 C-31.51891822 13.22022044 -35.42297438 12.52768004 -40 11 C-40 10.34 -40 9.68 -40 9 C-39.18015625 9.15855469 -38.3603125 9.31710937 -37.515625 9.48046875 C-27.32389917 10.98657934 -16.04807607 11.57064385 -7 6 C-4.47391735 4.12374296 -2.28183189 2.18262181 0 0 Z M-40 13 C-38 14 -38 14 -38 14 Z " fill="#6DD6D8" transform="translate(227,270)"/>
<path d="M0 0 C0.33 0 0.66 0 1 0 C0.98839844 1.16917969 0.97679687 2.33835938 0.96484375 3.54296875 C0.95546087 5.09114423 0.9463612 6.63932145 0.9375 8.1875 C0.92912109 8.95642578 0.92074219 9.72535156 0.91210938 10.51757812 C0.90727539 11.64389648 0.90727539 11.64389648 0.90234375 12.79296875 C0.89710693 13.4789917 0.89187012 14.16501465 0.88647461 14.87182617 C0.97560891 17.50032782 0.97560891 17.50032782 2 22 C2.33 17.38 2.66 12.76 3 8 C3.33 8 3.66 8 4 8 C4.19335938 9.08539063 4.38671875 10.17078125 4.5859375 11.2890625 C4.84872917 12.73441668 5.11176286 14.17972688 5.375 15.625 C5.50132812 16.33785156 5.62765625 17.05070312 5.7578125 17.78515625 C6.3676581 21.10881476 7.06119515 24.18295458 8.13671875 27.3984375 C9 30 9 30 8.4375 32 C7.73604491 35.20665183 9.44040226 37.25510798 11 40 C6.48392586 38.49464195 4.20927326 34.99341823 2 31 C-2.52751731 20.84605341 -3.84391309 10.57076101 0 0 Z " fill="#70D5D9" transform="translate(165,239)"/>
<path d="M0 0 C2.31 0 4.62 0 7 0 C8.78409802 3.06246747 9.22880021 5.22079273 9.125 8.75 C9.10695312 9.54921875 9.08890625 10.3484375 9.0703125 11.171875 C9.03550781 12.07679688 9.03550781 12.07679688 9 13 C7.12109375 13.60546875 7.12109375 13.60546875 5 14 C3.0625 12.3125 3.0625 12.3125 1 10 C0.0925 9.29875 -0.815 8.5975 -1.75 7.875 C-2.86375 6.946875 -2.86375 6.946875 -4 6 C-4 5.34 -4 4.68 -4 4 C-3.34 4 -2.68 4 -2 4 C-2 3.34 -2 2.68 -2 2 C-1.34 2 -0.68 2 0 2 C0 1.34 0 0.68 0 0 Z " fill="#5CE1E5" transform="translate(214,209)"/>
<path d="M0 0 C3.3 0 6.6 0 10 0 C10.33 1.32 10.66 2.64 11 4 C11.71027344 3.98839844 12.42054688 3.97679687 13.15234375 3.96484375 C14.07144531 3.95582031 14.99054688 3.94679687 15.9375 3.9375 C16.85402344 3.92589844 17.77054688 3.91429687 18.71484375 3.90234375 C21 4 21 4 22 5 C22.08700342 6.63472882 22.10701063 8.27314055 22.09765625 9.91015625 C22.09443359 10.89951172 22.09121094 11.88886719 22.08789062 12.90820312 C22.07951172 13.94912109 22.07113281 14.99003906 22.0625 16.0625 C22.05798828 17.10728516 22.05347656 18.15207031 22.04882812 19.22851562 C22.03699913 21.8190666 22.02051689 24.40950559 22 27 C21.67 27 21.34 27 21 27 C21 20.07 21 13.14 21 6 C18.525 6.0928125 18.525 6.0928125 16 6.1875 C10.58505579 6.1875 6.85646441 5.38408253 2 3 C1.34 2.01 0.68 1.02 0 0 Z " fill="#69D9DD" transform="translate(229,209)"/>
<path d="M0 0 C0.33 1.32 0.66 2.64 1 4 C-0.65 5.32 -2.3 6.64 -4 8 C-2.14034925 9.85965075 0.94889119 9.24087549 3.44140625 9.31640625 C4.74658203 9.35830078 6.05175781 9.40019531 7.39648438 9.44335938 C8.7851533 9.48317608 10.17382522 9.52288825 11.5625 9.5625 C12.95509183 9.60567989 14.34767028 9.649294 15.74023438 9.69335938 C19.16004801 9.79985876 22.57993763 9.90186923 26 10 C26.33 9.34 26.66 8.68 27 8 C27 8.99 27 9.98 27 11 C14.13 11 1.26 11 -12 11 C-12 9.68 -12 8.36 -12 7 C-10.39125 6.87625 -10.39125 6.87625 -8.75 6.75 C-4.69279432 5.93855886 -3.50540406 5.17993592 -1 2 C-0.67 1.34 -0.34 0.68 0 0 Z " fill="#81C6CC" transform="translate(249,322)"/>
<path d="M0 0 C0.83595703 0.00451172 1.67191406 0.00902344 2.53320312 0.01367188 C4.58466649 0.02539452 6.63609273 0.04332797 8.6875 0.0625 C8.6875 1.3825 8.6875 2.7025 8.6875 4.0625 C5.79141407 4.11663245 2.89634805 4.15623641 0 4.1875 C-1.22493164 4.21263672 -1.22493164 4.21263672 -2.47460938 4.23828125 C-6.88342929 4.2739802 -10.29981576 4.13830814 -14.3125 2.0625 C-14.3125 1.7325 -14.3125 1.4025 -14.3125 1.0625 C-9.54157044 -0.17152862 -4.88780554 -0.05015112 0 0 Z " fill="#5CE1E8" transform="translate(201.3125,282.9375)"/>
<path d="M0 0 C0.66 0 1.32 0 2 0 C1.835 0.66 1.67 1.32 1.5 2 C0.47775337 8.13347979 0.9870549 13.9223294 2 20 C1.01 20 0.02 20 -1 20 C-6.94124948 9.45428217 -6.94124948 9.45428217 -6 3 C-5.34 2.34 -4.68 1.68 -4 1 C-3.67 3.97 -3.34 6.94 -3 10 C-2.86722656 9.36191406 -2.73445312 8.72382813 -2.59765625 8.06640625 C-2.42105469 7.24011719 -2.24445313 6.41382813 -2.0625 5.5625 C-1.88847656 4.73878906 -1.71445313 3.91507813 -1.53515625 3.06640625 C-1 1 -1 1 0 0 Z " fill="#70D4D5" transform="translate(191,224)"/>
<path d="M0 0 C2.97 0.33 5.94 0.66 9 1 C9.33 5.29 9.66 9.58 10 14 C9.01 13.67 8.02 13.34 7 13 C6.67 10.69 6.34 8.38 6 6 C4.35 6 2.7 6 1 6 C0 1.125 0 1.125 0 0 Z " fill="#5BE1E7" transform="translate(220,149)"/>
<path d="M0 0 C-0.90726048 4.74043603 -3.3795049 8.70858853 -5.625 12.9296875 C-7.00325475 16.00726772 -7.60186008 18.66557817 -8 22 C-8.33 22 -8.66 22 -9 22 C-9.08206368 17.81475251 -8.84189178 14.08918864 -8 10 C-8.33 9.67 -8.66 9.34 -9 9 C-9 9.99 -9 10.98 -9 12 C-9.66 12 -10.32 12 -11 12 C-9.02241502 6.06724506 -6.672377 0 0 0 Z " fill="#6BD0D3" transform="translate(178,224)"/>
<path d="M0 0 C0.33 0 0.66 0 1 0 C1.25417629 3.4569756 1.47407622 6.91528826 1.6875 10.375 C1.76033203 11.35984375 1.83316406 12.3446875 1.90820312 13.359375 C1.96298828 14.30039063 2.01777344 15.24140625 2.07421875 16.2109375 C2.13182373 17.08024902 2.18942871 17.94956055 2.2487793 18.84521484 C2.16668213 19.55629395 2.08458496 20.26737305 2 21 C1.01 21.66 0.02 22.32 -1 23 C-1.43699219 21.77023438 -1.43699219 21.77023438 -1.8828125 20.515625 C-5.00451053 12.06150561 -5.00451053 12.06150561 -12 7 C-8.71023192 5.90341064 -7.28696233 6.20046862 -4 7 C-3.71125 8.134375 -3.4225 9.26875 -3.125 10.4375 C-2.75375 11.613125 -2.3825 12.78875 -2 14 C-1.34 14.33 -0.68 14.66 0 15 C0 10.05 0 5.1 0 0 Z " fill="#7BD2D5" transform="translate(230,148)"/>
<path d="M0 0 C1.32 0.66 2.64 1.32 4 2 C2.70982586 2.98113243 1.41780894 3.95984199 0.125 4.9375 C-0.59429687 5.48277344 -1.31359375 6.02804687 -2.0546875 6.58984375 C-5.43360939 9.03922287 -7.48122527 9.11068343 -11.625 9.0625 C-12.62789062 9.05347656 -13.63078125 9.04445313 -14.6640625 9.03515625 C-15.43492187 9.02355469 -16.20578125 9.01195312 -17 9 C-16.67 7.68 -16.34 6.36 -16 5 C-15.34 5 -14.68 5 -14 5 C-14 5.66 -14 6.32 -14 7 C-12.02 6.67 -10.04 6.34 -8 6 C-8 4.68 -8 3.36 -8 2 C-7.05125 2.20625 -6.1025 2.4125 -5.125 2.625 C-4.09375 2.74875 -3.0625 2.8725 -2 3 C-1.34 2.34 -0.68 1.68 0 1 C0 0.67 0 0.34 0 0 Z " fill="#60DFE7" transform="translate(232,276)"/>
<path d="M0 0 C0.66 0.721875 1.32 1.44375 2 2.1875 C4.81419598 5.03413628 7.98356367 6.97376362 11.42578125 8.984375 C11.94527344 9.31953125 12.46476563 9.6546875 13 10 C13 10.33 13 10.66 13 11 C11.06177404 10.96694498 9.12414332 10.89750095 7.1875 10.8125 C6.10855469 10.77769531 5.02960938 10.74289062 3.91796875 10.70703125 C1 10 1 10 -0.9375 7.625 C-2 5 -2 5 -1.1875 2.1875 C-0.795625 1.465625 -0.40375 0.74375 0 0 Z " fill="#69DDE3" transform="translate(174,268)"/>
<path d="M0 0 C0.33 0 0.66 0 1 0 C1.11571765 10.10049734 -1.15175557 17.69379776 -7 26 C-9.23046875 27.8671875 -9.23046875 27.8671875 -11 29 C-11 27.35 -11 25.7 -11 24 C-10.01 24.33 -9.02 24.66 -8 25 C-8 24.01 -8 23.02 -8 22 C-7.34 22 -6.68 22 -6 22 C-5.566875 20.700625 -5.566875 20.700625 -5.125 19.375 C-4.44161586 17.32484757 -3.73852399 15.28094097 -3 13.25 C-1.65987648 8.89459857 -0.83158954 4.47642882 0 0 Z " fill="#73D6DB" transform="translate(247,248)"/>
<path d="M0 0 C4.39970265 4.0114936 8.42485876 8.58833101 11 14 C10.6640625 16.27734375 10.6640625 16.27734375 10 18 C9.608125 16.88625 9.21625 15.7725 8.8125 14.625 C7.59896166 11.76451678 7.2608867 11.14635107 4.4375 9.5625 C2.09212994 8.92504683 2.09212994 8.92504683 0 9 C0 6.03 0 3.06 0 0 Z " fill="#6DDADD" transform="translate(233,218)"/>
<path d="M0 0 C0.66 0.33 1.32 0.66 2 1 C2 1.99 2 2.98 2 4 C1.34 4.66 0.68 5.32 0 6 C-0.59834554 7.52056618 -1.13506656 9.06612088 -1.625 10.625 C-2.01558594 11.85089844 -2.01558594 11.85089844 -2.4140625 13.1015625 C-2.60742188 13.72804687 -2.80078125 14.35453125 -3 15 C-3.33 15 -3.66 15 -4 15 C-4.33 11.04 -4.66 7.08 -5 3 C-3.35 2.67 -1.7 2.34 0 2 C0 1.34 0 0.68 0 0 Z " fill="#61E0E8" transform="translate(191,220)"/>
<path d="M0 0 C2.625 0.9375 2.625 0.9375 5 2 C5 2.99 5 3.98 5 5 C3.35 5 1.7 5 0 5 C-0.33 5.99 -0.66 6.98 -1 8 C-2.65 7.67 -4.3 7.34 -6 7 C-2.25 1.125 -2.25 1.125 0 0 Z " fill="#65D9E0" transform="translate(198,211)"/>
<path d="M0 0 C3.58513106 1.62184501 6.58992323 3.79256239 9.75 6.125 C11.22726563 7.21167969 11.22726563 7.21167969 12.734375 8.3203125 C13.48203125 8.87460938 14.2296875 9.42890625 15 10 C11.45064295 11.18311902 10.75125428 10.78103361 7.4375 9.3125 C6.65246094 8.97863281 5.86742187 8.64476562 5.05859375 8.30078125 C1.76528021 6.21980704 1.19741549 3.59224646 0 0 Z " fill="#6DD4D9" transform="translate(210,200)"/>
<path d="M0 0 C0 0.99 0 1.98 0 3 C-0.99 3.33 -1.98 3.66 -3 4 C-4.71567661 7.50294871 -4.71567661 7.50294871 -6 11 C-6.66 11 -7.32 11 -8 11 C-8.66 12.65 -9.32 14.3 -10 16 C-11 13 -11 13 -9.890625 10.625 C-9.34921875 9.75875 -8.8078125 8.8925 -8.25 8 C-7.71890625 7.13375 -7.1878125 6.2675 -6.640625 5.375 C-2.92763158 0 -2.92763158 0 0 0 Z " fill="#6FD4D5" transform="translate(189,152)"/>
<path d="M0 0 C0.33 1.32 0.66 2.64 1 4 C-0.65 5.32 -2.3 6.64 -4 8 C-3.67 8.66 -3.34 9.32 -3 10 C-5.64 10 -8.28 10 -11 10 C-10.67 9.01 -10.34 8.02 -10 7 C-8.00882592 6.30741771 -6.0078864 5.64252365 -4 5 C-2.04953058 3.38581841 -1.12981307 2.25962614 0 0 Z " fill="#6BD2D3" transform="translate(249,322)"/>
<path d="M0 0 C1.32 0.66 2.64 1.32 4 2 C2.71283353 3.00578589 1.42011342 4.00446798 0.125 5 C-0.95394531 5.8353125 -0.95394531 5.8353125 -2.0546875 6.6875 C-4 8 -4 8 -6 8 C-6 7.34 -6 6.68 -6 6 C-5.34 6 -4.68 6 -4 6 C-3.67 5.01 -3.34 4.02 -3 3 C-2.01 2.34 -1.02 1.68 0 1 C0 0.67 0 0.34 0 0 Z " fill="#6BD5D7" transform="translate(232,276)"/>
<path d="M0 0 C0.66 0.33 1.32 0.66 2 1 C1.44271087 4.34373475 0.64826111 7.03312999 -1 10 C-1.33 10 -1.66 10 -2 10 C-2.33 7.69 -2.66 5.38 -3 3 C-2.01 3 -1.02 3 0 3 C0 2.01 0 1.02 0 0 Z " fill="#5BE2E8" transform="translate(169,233)"/>
<path d="M0 0 C3.60244452 0.30878096 4.99345998 0.99447732 7.8125 3.375 C10 6 10 6 10 9 C8.33043913 7.69118353 6.66441696 6.37785174 5 5.0625 C4.071875 4.33160156 3.14375 3.60070312 2.1875 2.84765625 C1.465625 2.23792969 0.74375 1.62820312 0 1 C0 0.67 0 0.34 0 0 Z " fill="#78D5D9" transform="translate(187,198)"/>
<path d="M0 0 C3.0625 0.1875 3.0625 0.1875 5.0625 2.1875 C2.14767222 2.99717438 0.60136783 3.40595993 -2.25 2.25 C-2.806875 1.899375 -3.36375 1.54875 -3.9375 1.1875 C-2.9375 0.1875 -2.9375 0.1875 0 0 Z " fill="#55E3E3" transform="translate(178.9375,277.8125)"/>
<path d="M0 0 C2.91517292 1.07401108 4.77810176 1.77810176 7 4 C4.03 3.67 1.06 3.34 -2 3 C-1.34 2.67 -0.68 2.34 0 2 C0 1.34 0 0.68 0 0 Z " fill="#6FD7D9" transform="translate(180,275)"/>
<path d="M0 0 C0.66 0 1.32 0 2 0 C1.34 3.96 0.68 7.92 0 12 C-0.33 12 -0.66 12 -1 12 C-1.02687279 10.18757948 -1.04633715 8.37504767 -1.0625 6.5625 C-1.07410156 5.55316406 -1.08570313 4.54382813 -1.09765625 3.50390625 C-1 1 -1 1 0 0 Z " fill="#6FCDD0" transform="translate(191,224)"/>
</svg>
